<?xml version="1.0" encoding="UTF-8"?>
<svg id="Livello_3" data-name="Livello 3" xmlns="http://www.w3.org/2000/svg" xmlns:xlink="http://www.w3.org/1999/xlink" viewBox="0 0 1024 221.39">
  <defs>
    <style>
      .cls-1 {
        fill: url(#Sfumatura_senza_nome_93);
      }

      .cls-2 {
        fill: #163592;
      }

      .cls-3 {
        fill: #545f6e;
      }

      .cls-4 {
        fill: url(#Sfumatura_senza_nome_96);
      }

      .cls-5 {
        fill: url(#Sfumatura_senza_nome_26);
      }

      .cls-6 {
        fill: url(#Sfumatura_senza_nome_67);
      }

      .cls-7 {
        fill: url(#Sfumatura_senza_nome_77);
      }

      .cls-8 {
        fill: url(#Sfumatura_senza_nome_11);
      }

      .cls-9 {
        fill: url(#Sfumatura_senza_nome_44);
      }

      .cls-10 {
        fill: url(#Sfumatura_senza_nome_52);
      }

      .cls-11 {
        fill: url(#Sfumatura_senza_nome_60);
      }

      .cls-12 {
        fill: url(#Sfumatura_senza_nome_60-2);
      }

      .cls-13 {
        fill: #393e46;
      }
    </style>
    <linearGradient id="Sfumatura_senza_nome_52" data-name="Sfumatura senza nome 52" x1="88.79" y1="62.97" x2="72.37" y2="130.26" gradientUnits="userSpaceOnUse">
      <stop offset="0" stop-color="#eeeeed"/>
      <stop offset="1" stop-color="#abadb3"/>
    </linearGradient>
    <linearGradient id="Sfumatura_senza_nome_96" data-name="Sfumatura senza nome 96" x1="43.52" y1="68.72" x2="136.03" y2="36.18" gradientUnits="userSpaceOnUse">
      <stop offset="0" stop-color="#1944a9"/>
      <stop offset=".46" stop-color="#1843a6"/>
      <stop offset=".69" stop-color="#17409f"/>
      <stop offset=".87" stop-color="#153b91"/>
      <stop offset="1" stop-color="#143683"/>
    </linearGradient>
    <linearGradient id="Sfumatura_senza_nome_93" data-name="Sfumatura senza nome 93" x1="76.9" y1="30.28" x2="94.96" y2="62.74" gradientUnits="userSpaceOnUse">
      <stop offset="0" stop-color="#164fc7"/>
      <stop offset="1" stop-color="#2d66d7"/>
    </linearGradient>
    <linearGradient id="Sfumatura_senza_nome_77" data-name="Sfumatura senza nome 77" x1="63.32" y1="175.34" x2="114.59" y2="105.92" gradientUnits="userSpaceOnUse">
      <stop offset="0" stop-color="#21282a"/>
      <stop offset="1" stop-color="#828a94"/>
    </linearGradient>
    <linearGradient id="Sfumatura_senza_nome_67" data-name="Sfumatura senza nome 67" x1="79.07" y1="69.97" x2="111.3" y2="183.82" gradientUnits="userSpaceOnUse">
      <stop offset="0" stop-color="#103191"/>
      <stop offset=".47" stop-color="#0f2f8e"/>
      <stop offset=".71" stop-color="#0c2987"/>
      <stop offset=".89" stop-color="#081e79"/>
      <stop offset="1" stop-color="#05156e"/>
    </linearGradient>
    <linearGradient id="Sfumatura_senza_nome_60" data-name="Sfumatura senza nome 60" x1="88.54" y1="55.23" x2="133.68" y2="179.79" gradientUnits="userSpaceOnUse">
      <stop offset="0" stop-color="#173999"/>
      <stop offset="1" stop-color="#020f54"/>
    </linearGradient>
    <radialGradient id="Sfumatura_senza_nome_11" data-name="Sfumatura senza nome 11" cx="79.48" cy="85.05" fx="79.48" fy="85.05" r="10.16" gradientUnits="userSpaceOnUse">
      <stop offset="0" stop-color="#0e48e1"/>
      <stop offset=".29" stop-color="#0e47de"/>
      <stop offset=".48" stop-color="#0e45d5"/>
      <stop offset=".64" stop-color="#0f41c6"/>
      <stop offset=".79" stop-color="#113bb1"/>
      <stop offset=".92" stop-color="#123496"/>
      <stop offset="1" stop-color="#143083"/>
    </radialGradient>
    <linearGradient id="Sfumatura_senza_nome_44" data-name="Sfumatura senza nome 44" x1="59.06" y1="115.43" x2="39.12" y2="81.98" gradientUnits="userSpaceOnUse">
      <stop offset="0" stop-color="#050608"/>
      <stop offset=".05" stop-color="#0d1016"/>
      <stop offset=".13" stop-color="#171f29"/>
      <stop offset=".22" stop-color="#1f2936"/>
      <stop offset=".34" stop-color="#232f3e"/>
      <stop offset=".57" stop-color="#253141"/>
    </linearGradient>
    <linearGradient id="Sfumatura_senza_nome_26" data-name="Sfumatura senza nome 26" x1="26.55" y1="106.18" x2="57.25" y2="89.97" gradientUnits="userSpaceOnUse">
      <stop offset="0" stop-color="#3c4252"/>
      <stop offset=".37" stop-color="#404859"/>
      <stop offset=".91" stop-color="#4d5b6d"/>
      <stop offset="1" stop-color="#505f71"/>
    </linearGradient>
    <linearGradient id="Sfumatura_senza_nome_60-2" data-name="Sfumatura senza nome 60" x1="304.53" y1="110.69" x2="402.51" y2="110.69" xlink:href="#Sfumatura_senza_nome_60"/>
  </defs>
  <g>
    <path class="cls-10" d="M54.5,76.46s10.64-15.35,21.93-15.14c11.28.21,17.24.19,26.4,7.57,9.15,7.38,9.15,13.81,9.58,21.08s-3.83,15.36-13.2,21.17c-9.37,5.81-24.84,1.66-35.31,19.31l-.02-27.37s-.15-10.28-5.41-13.56-3.98-13.05-3.98-13.05Z"/>
    <path class="cls-4" d="M88.37,50.96s7.76-.76,17.74,1.53,31.46-11.83,24.68-31.22c0,0,.17,3.57-1.81,4.89s-14.97,12.16-45.75,15.29-34.95,40.79-34.95,40.79l4.37.02s6.6-32.35,35.72-31.3Z"/>
    <path class="cls-1" d="M130.79,21.27s.25,10.35-40.69,12.42c-40.94,2.07-47.62,37.94-45.68,44.08,0,0,6.74-1.56,8.23-1.32,0,0,1.93-27.17,25.43-32.37,0,0,12.64-3.2,24.88-3.37,12.23-.17,31.2-14.34,27.83-19.45Z"/>
    <path class="cls-3" d="M42.62,117.01s-9.98-9.23-9.98-20.72,7.53-16.76,9.98-17.89,9.61-2.26,12.06-1.88c0,0-1.88,8.1,3.96,13,5.84,4.9,5.27,13.56,5.27,13.56v13.19s-11.87,1.13-21.47-5.65c0,0-.75,2.07.19,6.4Z"/>
    <path class="cls-7" d="M60.23,137.79s3.57-19.84,25.96-22.66c22.4-2.82,28.37-25.05,26.93-32.25-1.44-7.2,8.48,7,8.48,7l-18.97,52.68s-26.34,35.19-16.05,47.13c0,0-36.63-13.25-26.34-51.9Z"/>
    <path class="cls-6" d="M70.32,156.56s.82-14.16,16.46-26.11,27.33-17.93,24.47-45.5c0,0,.17-14.41-19.56-21.51,0,0,20.2,1.96,26.99,18.21,6.79,16.26,1.23,45.48-11.52,58.24-12.76,12.76-28.19,39.72-20.58,49.8,0,0-20.37-11.52-16.26-33.13Z"/>
    <path class="cls-11" d="M136.58,42.6s-4.03,8.7-27.59,7.13-25.64-2.26-35.36,1.7-16.03,9.61-20.98,25.03l2.03.05s10.92-17.23,26.52-15.08c14.48,2,21.6,4.76,31.56,18.08,9.96,13.32,3.86,37.53-5.81,49.26s-20.37,14.2-25.52,32.72,5.14,28.19,5.14,28.19c0,0-1.65-12.96,9.67-23.87,11.32-10.91,18.52-19.96,22.64-34.16,0,0,.82.82,1.23,10.7,0,0,19.76-16.87,9.67-49.39,0,0,5.76,2.88,9.05,11.52,0,0,7.11-27.68-20.17-45.27,0,0,19.96-2.16,17.9-16.62Z"/>
    <circle class="cls-8" cx="79.48" cy="85.05" r="10.16"/>
    <path class="cls-9" d="M42.62,117.01s-9.98-9.23-9.98-20.72,7.53-16.76,9.98-17.89,9.61-2.26,12.06-1.88c0,0-1.88,8.1,3.96,13,5.84,4.9,5.27,13.56,5.27,13.56v13.19s-11.87,1.13-21.47-5.65c0,0-.75,2.07.19,6.4Z"/>
    <path class="cls-5" d="M42.26,111.38c.14-2.77.88-5.73,3.23-6.73,4.82-2.05,7.5.45,12.86-8.39,1.02-1.68,1.78-3.19,2.35-4.52-.58-.79-1.27-1.55-2.08-2.23-5.84-4.9-3.96-13-3.96-13-2.45-.38-9.61.75-12.06,1.88-2.45,1.13-9.98,6.4-9.98,17.89s9.98,20.72,9.98,20.72c-.61-2.82-.51-4.68-.36-5.63Z"/>
  </g>
  <g>
    <path class="cls-2" d="M266.4,108.83c0,2.48.09,5.5.28,9.05.19,3.56.41,7.28.67,11.16.11,1.64.23,3.23.35,4.79-.89-1.91-1.78-3.71-2.67-5.41-1.81-3.43-3.58-6.55-5.32-9.37-1.74-2.81-3.45-5.42-5.15-7.81l-33.2-46.76h-23.97v92.4h21.99v-42.48c0-2.11-.08-4.83-.25-8.15-.17-3.33-.39-7.04-.67-11.13-.16-2.37-.33-4.8-.49-7.29,1.54,2.75,2.94,5.23,4.19,7.44,2.04,3.62,4.01,6.93,5.89,9.92,1.88,3,3.92,6.09,6.13,9.27l30.17,42.42h24.04v-92.4h-21.99v44.34Z"/>
    <path class="cls-12" d="M378.54,68.83c-7.38-3.72-15.72-5.58-25.02-5.58s-17.59,1.86-24.99,5.58c-7.4,3.72-13.25,9.13-17.55,16.22-4.3,7.09-6.45,15.66-6.45,25.71s2.15,18.54,6.45,25.61c4.3,7.07,10.15,12.47,17.55,16.19,7.4,3.72,15.73,5.58,24.99,5.58s17.64-1.86,25.02-5.58c7.38-3.72,13.22-9.12,17.52-16.19,4.3-7.07,6.45-15.61,6.45-25.61s-2.15-18.61-6.45-25.71c-4.3-7.09-10.14-12.5-17.52-16.22ZM377.27,127.47c-2.26,4.57-5.42,8.02-9.48,10.36-4.07,2.34-8.82,3.5-14.27,3.5s-10.15-1.18-14.24-3.53c-4.09-2.36-7.26-5.81-9.52-10.36-2.25-4.55-3.38-10.11-3.38-16.68s1.13-12.21,3.38-16.78c2.26-4.57,5.43-8.03,9.52-10.39,4.09-2.36,8.83-3.53,14.24-3.53s10.21,1.17,14.27,3.5c4.06,2.34,7.22,5.79,9.48,10.36,2.26,4.57,3.38,10.18,3.38,16.84s-1.13,12.15-3.38,16.71Z"/>
    <path class="cls-13" d="M492.76,79.53c-2.94-4.69-7.2-8.37-12.79-11.04-5.59-2.67-12.38-4-20.37-4h-40.95v92.4h21.5v-30.2h18.96c8.08,0,14.95-1.31,20.62-3.94,5.66-2.62,9.99-6.26,12.97-10.91,2.98-4.65,4.48-10.04,4.48-16.15s-1.47-11.46-4.41-16.15ZM472.89,103.87c-1.39,2.36-3.5,4.21-6.34,5.55-2.84,1.34-6.47,2.01-10.89,2.01h-15.51v-31.32h15.44c4.42,0,8.06.65,10.93,1.95,2.87,1.3,4.99,3.12,6.38,5.46,1.39,2.34,2.08,5.05,2.08,8.15s-.69,5.83-2.08,8.19Z"/>
    <path class="cls-13" d="M530.02,64.49l-35.88,92.4h23.75l7.8-21.46h37.31l8.11,21.46h23.89l-36.79-92.4h-28.19ZM531.08,120.62l3.02-8.31c1.93-5.62,3.86-11.88,5.82-18.76,1.26-4.46,2.59-9.2,3.99-14.19,1.44,4.95,2.84,9.64,4.19,14.07,2.09,6.84,4.15,13.14,6.17,18.88l3.14,8.31h-26.32Z"/>
    <path class="cls-13" d="M669.05,120.4c5.66-2.34,9.99-5.71,12.97-10.11,2.98-4.4,4.48-9.64,4.48-15.72s-1.47-11.37-4.41-15.88c-2.94-4.51-7.2-8-12.79-10.48-5.59-2.48-12.38-3.72-20.37-3.72h-40.95v92.4h21.5v-32.99h16.86l20.08,32.99h23.82l-22.36-36.05c.39-.15.8-.29,1.18-.44ZM629.47,80.12h15.44c4.42,0,8.05.56,10.89,1.67,2.84,1.12,4.97,2.74,6.38,4.87,1.41,2.13,2.11,4.76,2.11,7.91s-.7,5.63-2.11,7.72c-1.41,2.09-3.52,3.66-6.34,4.71-2.82,1.05-6.44,1.58-10.85,1.58h-15.51v-28.47Z"/>
    <path class="cls-13" d="M763.86,120.4c5.66-2.34,9.99-5.71,12.97-10.11,2.98-4.4,4.48-9.64,4.48-15.72s-1.47-11.37-4.41-15.88c-2.94-4.51-7.2-8-12.79-10.48-5.59-2.48-12.38-3.72-20.37-3.72h-40.95v92.4h21.5v-32.99h16.86l20.08,32.99h23.82l-22.36-36.05c.39-.15.8-.29,1.18-.44ZM724.28,80.12h15.44c4.42,0,8.05.56,10.89,1.67,2.84,1.12,4.97,2.74,6.38,4.87,1.41,2.13,2.11,4.76,2.11,7.91s-.7,5.63-2.11,7.72c-1.41,2.09-3.52,3.66-6.34,4.71-2.82,1.05-6.44,1.58-10.85,1.58h-15.51v-28.47Z"/>
    <path class="cls-13" d="M868.71,68.83c-7.38-3.72-15.72-5.58-25.02-5.58s-17.59,1.86-24.99,5.58c-7.4,3.72-13.25,9.13-17.55,16.22-4.3,7.09-6.45,15.66-6.45,25.71s2.15,18.54,6.45,25.61c4.3,7.07,10.15,12.47,17.55,16.19,7.4,3.72,15.73,5.58,24.99,5.58s17.64-1.86,25.02-5.58c7.38-3.72,13.22-9.12,17.52-16.19,4.3-7.07,6.45-15.61,6.45-25.61s-2.15-18.61-6.45-25.71c-4.3-7.09-10.14-12.5-17.52-16.22ZM867.44,127.47c-2.26,4.57-5.42,8.02-9.48,10.36-4.07,2.34-8.82,3.5-14.27,3.5s-10.15-1.18-14.24-3.53c-4.09-2.36-7.26-5.81-9.52-10.36-2.25-4.55-3.38-10.11-3.38-16.68s1.13-12.21,3.38-16.78c2.26-4.57,5.43-8.03,9.52-10.39,4.09-2.36,8.83-3.53,14.24-3.53s10.21,1.17,14.27,3.5c4.06,2.34,7.22,5.79,9.48,10.36,2.26,4.57,3.38,10.18,3.38,16.84s-1.13,12.15-3.38,16.71Z"/>
    <polygon class="cls-13" points="900 64.49 900 80.18 932.15 80.18 932.15 156.9 953.72 156.9 953.72 80.18 985.79 80.18 985.79 64.49 900 64.49"/>
  </g>
</svg>